<svg xmlns="http://www.w3.org/2000/svg" width="2400" height="3680" viewBox="0 0 2400 3680">
<defs><marker id="arrow" viewBox="0 0 10 10" refX="9" refY="5" markerWidth="8" markerHeight="8" orient="auto-start-reverse"><path d="M 0 0 L 10 5 L 0 10 z" fill="#607B6C"/></marker></defs>
<rect width="100%" height="100%" fill="#fffdfa"/>
<polyline points="1180.0,330.0 1180.0,430.0 400.0,430.0 400.0,460.0" fill="none" stroke="#607B6C" stroke-width="2.4"  marker-end="url(#arrow)"/>
<polyline points="400.0,570.0 400.0,700.0" fill="none" stroke="#607B6C" stroke-width="2.4"  marker-end="url(#arrow)"/>
<polyline points="400.0,870.0 400.0,940.0" fill="none" stroke="#607B6C" stroke-width="2.4"  marker-end="url(#arrow)"/>
<polyline points="620.0,780.0 650.0,780.0 650.0,760.0 1740.0,760.0" fill="none" stroke="#607B6C" stroke-width="2.4"  marker-end="url(#arrow)"/>
<polyline points="2180.0,760.0 2210.0,760.0 2210.0,520.0 620.0,520.0" fill="none" stroke="#B76C4A" stroke-width="2.4" stroke-dasharray="7 5" marker-end="url(#arrow)"/>
<polyline points="620.0,1000.0 1740.0,1000.0" fill="none" stroke="#607B6C" stroke-width="2.4"  marker-end="url(#arrow)"/>
<polyline points="1960.0,1050.0 1960.0,1080.0 400.0,1080.0 400.0,1050.0" fill="none" stroke="#607B6C" stroke-width="2.4"  marker-end="url(#arrow)"/>
<polyline points="400.0,1050.0 400.0,1180.0" fill="none" stroke="#607B6C" stroke-width="2.4"  marker-end="url(#arrow)"/>
<polyline points="400.0,1350.0 400.0,1420.0" fill="none" stroke="#607B6C" stroke-width="2.4"  marker-end="url(#arrow)"/>
<polyline points="400.0,1350.0 400.0,1380.0 1180.0,1380.0 1180.0,1420.0" fill="none" stroke="#607B6C" stroke-width="2.4"  marker-end="url(#arrow)"/>
<polyline points="1180.0,330.0 1180.0,360.0 1190.0,360.0 1190.0,1390.0 1180.0,1390.0 1180.0,1420.0" fill="none" stroke="#607B6C" stroke-width="2.4"  marker-end="url(#arrow)"/>
<polyline points="1180.0,1530.0 1180.0,1660.0" fill="none" stroke="#607B6C" stroke-width="2.4"  marker-end="url(#arrow)"/>
<polyline points="960.0,1740.0 930.0,1740.0 930.0,1720.0 620.0,1720.0" fill="none" stroke="#607B6C" stroke-width="2.4"  marker-end="url(#arrow)"/>
<polyline points="1180.0,1830.0 1180.0,1900.0" fill="none" stroke="#607B6C" stroke-width="2.4"  marker-end="url(#arrow)"/>
<polyline points="960.0,1980.0 930.0,1980.0 930.0,1960.0 620.0,1960.0" fill="none" stroke="#607B6C" stroke-width="2.4"  marker-end="url(#arrow)"/>
<polyline points="180.0,1960.0 150.0,1960.0 150.0,1560.0 930.0,1560.0 930.0,1480.0 960.0,1480.0" fill="none" stroke="#B76C4A" stroke-width="2.4" stroke-dasharray="7 5" marker-end="url(#arrow)"/>
<polyline points="1180.0,2070.0 1180.0,2140.0" fill="none" stroke="#607B6C" stroke-width="2.4"  marker-end="url(#arrow)"/>
<polyline points="1180.0,2250.0 1180.0,2380.0" fill="none" stroke="#607B6C" stroke-width="2.4"  marker-end="url(#arrow)"/>
<polyline points="1180.0,2490.0 1180.0,2620.0" fill="none" stroke="#607B6C" stroke-width="2.4"  marker-end="url(#arrow)"/>
<polyline points="960.0,2700.0 930.0,2700.0 930.0,2680.0 620.0,2680.0" fill="none" stroke="#607B6C" stroke-width="2.4"  marker-end="url(#arrow)"/>
<polyline points="1400.0,2700.0 1430.0,2700.0 1430.0,2680.0 1740.0,2680.0" fill="none" stroke="#607B6C" stroke-width="2.4"  marker-end="url(#arrow)"/>
<polyline points="1180.0,2790.0 1180.0,2860.0" fill="none" stroke="#607B6C" stroke-width="2.4"  marker-end="url(#arrow)"/>
<polyline points="180.0,2680.0 150.0,2680.0 150.0,2040.0 920.0,2040.0 920.0,1480.0 960.0,1480.0" fill="none" stroke="#B76C4A" stroke-width="2.4" stroke-dasharray="7 5" marker-end="url(#arrow)"/>
<text x="78.0" y="63.0" text-anchor="start" font-family="Arial, sans-serif" font-size="30.0" fill="#1F2925">04 · Decide, client review, recheck and seller return</text>
<text x="78.0" y="133.45" text-anchor="start" font-family="Arial, sans-serif" font-size="17.0" fill="#1F2925">Screens S16–S18, S20–S21. Client approval records a version, never reserves stock. Seller handoff requires a fresh check; an external click does not prove purchase.</text>
<rect x="960.0" y="220.0" width="440.0" height="110.0" rx="12" fill="#DDE8DC" stroke="#285449" stroke-width="3"/>
<text x="1180.0" y="269.87" text-anchor="middle" font-family="Arial, sans-serif" font-size="18.0" fill="#1F2925">S16.BUDGET</text>
<text x="1180.0" y="292.73" text-anchor="middle" font-family="Arial, sans-serif" font-size="18.0" fill="#1F2925">Inspect all-in line items; save choice</text>
<rect x="180.0" y="460.0" width="440.0" height="110.0" rx="12" fill="#F6F3ED" stroke="#285449" stroke-width="3"/>
<text x="400.0" y="509.87" text-anchor="middle" font-family="Arial, sans-serif" font-size="18.0" fill="#1F2925">S20.PREVIEW → VALIDATING</text>
<text x="400.0" y="532.73" text-anchor="middle" font-family="Arial, sans-serif" font-size="18.0" fill="#1F2925">Select scope, role, expiry; create link</text>
<polygon points="400.0,700.0 620.0,785.0 400.0,870.0 180.0,785.0" fill="#F5E9DC" stroke="#A35E38" stroke-width="3"/>
<text x="400.0" y="779.87" text-anchor="middle" font-family="Arial, sans-serif" font-size="18.0" fill="#1F2925">Share valid and</text>
<text x="400.0" y="802.73" text-anchor="middle" font-family="Arial, sans-serif" font-size="18.0" fill="#1F2925">access authorized?</text>
<rect x="180.0" y="940.0" width="440.0" height="110.0" rx="12" fill="#F6F3ED" stroke="#285449" stroke-width="3"/>
<text x="400.0" y="989.87" text-anchor="middle" font-family="Arial, sans-serif" font-size="18.0" fill="#1F2925">S20.REVIEW</text>
<text x="400.0" y="1012.73" text-anchor="middle" font-family="Arial, sans-serif" font-size="18.0" fill="#1F2925">Inspect variant; comment; choose</text>
<rect x="1740.0" y="700.0" width="440.0" height="110.0" rx="12" fill="#FBE6E1" stroke="#A3382B" stroke-width="3"/>
<text x="1960.0" y="749.87" text-anchor="middle" font-family="Arial, sans-serif" font-size="18.0" fill="#1F2925">S20.EXPIRED</text>
<text x="1960.0" y="772.73" text-anchor="middle" font-family="Arial, sans-serif" font-size="18.0" fill="#1F2925">Deny content; owner renews scope</text>
<polygon points="400.0,1180.0 620.0,1265.0 400.0,1350.0 180.0,1265.0" fill="#F5E9DC" stroke="#A35E38" stroke-width="3"/>
<text x="400.0" y="1271.3" text-anchor="middle" font-family="Arial, sans-serif" font-size="18.0" fill="#1F2925">Client approves?</text>
<rect x="180.0" y="1420.0" width="440.0" height="110.0" rx="12" fill="#EAF0F7" stroke="#365D78" stroke-width="3"/>
<text x="400.0" y="1469.87" text-anchor="middle" font-family="Arial, sans-serif" font-size="18.0" fill="#1F2925">S20.REVISION</text>
<text x="400.0" y="1492.7299999999998" text-anchor="middle" font-family="Arial, sans-serif" font-size="18.0" fill="#1F2925">Designer edits brief; keep history</text>
<rect x="960.0" y="1420.0" width="440.0" height="110.0" rx="12" fill="#F6F3ED" stroke="#285449" stroke-width="3"/>
<text x="1180.0" y="1469.87" text-anchor="middle" font-family="Arial, sans-serif" font-size="18.0" fill="#1F2925">S16.RECHECKING</text>
<text x="1180.0" y="1492.7299999999998" text-anchor="middle" font-family="Arial, sans-serif" font-size="18.0" fill="#1F2925">Exact variant, count, delivered cost</text>
<polygon points="1180.0,1660.0 1400.0,1745.0 1180.0,1830.0 960.0,1745.0" fill="#F5E9DC" stroke="#A35E38" stroke-width="3"/>
<text x="1180.0" y="1739.87" text-anchor="middle" font-family="Arial, sans-serif" font-size="18.0" fill="#1F2925">Required quantity</text>
<text x="1180.0" y="1762.7299999999998" text-anchor="middle" font-family="Arial, sans-serif" font-size="18.0" fill="#1F2925">available?</text>
<rect x="180.0" y="1660.0" width="440.0" height="110.0" rx="12" fill="#EAF0F7" stroke="#365D78" stroke-width="3"/>
<text x="400.0" y="1709.87" text-anchor="middle" font-family="Arial, sans-serif" font-size="18.0" fill="#1F2925">S18.CHANGE / LOST</text>
<text x="400.0" y="1732.7299999999998" text-anchor="middle" font-family="Arial, sans-serif" font-size="18.0" fill="#1F2925">Preserve decision; inspect replacement</text>
<polygon points="1180.0,1900.0 1400.0,1985.0 1180.0,2070.0 960.0,1985.0" fill="#F5E9DC" stroke="#A35E38" stroke-width="3"/>
<text x="1180.0" y="1979.87" text-anchor="middle" font-family="Arial, sans-serif" font-size="18.0" fill="#1F2925">Cost known and</text>
<text x="1180.0" y="2002.7299999999998" text-anchor="middle" font-family="Arial, sans-serif" font-size="18.0" fill="#1F2925">within hard cap?</text>
<rect x="180.0" y="1900.0" width="440.0" height="110.0" rx="12" fill="#FBE6E1" stroke="#A3382B" stroke-width="3"/>
<text x="400.0" y="1949.87" text-anchor="middle" font-family="Arial, sans-serif" font-size="18.0" fill="#1F2925">S16.COST_UNKNOWN / OVER_CAP</text>
<text x="400.0" y="1972.7299999999998" text-anchor="middle" font-family="Arial, sans-serif" font-size="18.0" fill="#1F2925">Block seller action; retry or choose other</text>
<rect x="960.0" y="2140.0" width="440.0" height="110.0" rx="12" fill="#F6F3ED" stroke="#285449" stroke-width="3"/>
<text x="1180.0" y="2189.8700000000003" text-anchor="middle" font-family="Arial, sans-serif" font-size="18.0" fill="#1F2925">S17.HANDOFF</text>
<text x="1180.0" y="2212.7300000000005" text-anchor="middle" font-family="Arial, sans-serif" font-size="18.0" fill="#1F2925">Show seller, timestamp and referral</text>
<rect x="960.0" y="2380.0" width="440.0" height="110.0" rx="12" fill="#F6F3ED" stroke="#285449" stroke-width="3"/>
<text x="1180.0" y="2429.8700000000003" text-anchor="middle" font-family="Arial, sans-serif" font-size="18.0" fill="#1F2925">S17.EXTERNAL</text>
<text x="1180.0" y="2452.7300000000005" text-anchor="middle" font-family="Arial, sans-serif" font-size="18.0" fill="#1F2925">Open seller outside Homely</text>
<polygon points="1180.0,2620.0 1400.0,2705.0 1180.0,2790.0 960.0,2705.0" fill="#F5E9DC" stroke="#A35E38" stroke-width="3"/>
<text x="1180.0" y="2699.8700000000003" text-anchor="middle" font-family="Arial, sans-serif" font-size="18.0" fill="#1F2925">S17.RETURN</text>
<text x="1180.0" y="2722.7300000000005" text-anchor="middle" font-family="Arial, sans-serif" font-size="18.0" fill="#1F2925">What happened?</text>
<rect x="180.0" y="2620.0" width="440.0" height="110.0" rx="12" fill="#F6F3ED" stroke="#285449" stroke-width="3"/>
<text x="400.0" y="2669.8700000000003" text-anchor="middle" font-family="Arial, sans-serif" font-size="18.0" fill="#1F2925">S16.SAVED</text>
<text x="400.0" y="2692.7300000000005" text-anchor="middle" font-family="Arial, sans-serif" font-size="18.0" fill="#1F2925">Still considering; no purchase claim</text>
<rect x="1740.0" y="2620.0" width="440.0" height="110.0" rx="12" fill="#EAF0F7" stroke="#365D78" stroke-width="3"/>
<text x="1960.0" y="2669.8700000000003" text-anchor="middle" font-family="Arial, sans-serif" font-size="18.0" fill="#1F2925">S18.CHANGE</text>
<text x="1960.0" y="2692.7300000000005" text-anchor="middle" font-family="Arial, sans-serif" font-size="18.0" fill="#1F2925">Canceled / seller unavailable</text>
<rect x="960.0" y="2860.0" width="440.0" height="110.0" rx="12" fill="#EAF0F7" stroke="#365D78" stroke-width="3"/>
<text x="1180.0" y="2909.8700000000003" text-anchor="middle" font-family="Arial, sans-serif" font-size="18.0" fill="#1F2925">S21.PURCHASED</text>
<text x="1180.0" y="2932.7300000000005" text-anchor="middle" font-family="Arial, sans-serif" font-size="18.0" fill="#1F2925">Explicit confirmation; optional receipt</text>
<rect x="1740.0" y="940.0" width="440.0" height="110.0" rx="12" fill="#F6F3ED" stroke="#285449" stroke-width="3"/>
<text x="1960.0" y="989.87" text-anchor="middle" font-family="Arial, sans-serif" font-size="18.0" fill="#1F2925">S20.COMMENTING</text>
<text x="1960.0" y="1012.73" text-anchor="middle" font-family="Arial, sans-serif" font-size="18.0" fill="#1F2925">Post → notify; Cancel → discard</text>
<rect x="903.5" y="413.0" width="85.0" height="34.0" rx="12" fill="#FFFFFF" stroke="none" stroke-width="3"/>
<text x="946.0" y="435.25" text-anchor="middle" font-family="Arial, sans-serif" font-size="15.0" fill="#1F2925">Share</text>
<rect x="317.75" y="644.0" width="164.5" height="34.0" rx="12" fill="#FFFFFF" stroke="none" stroke-width="3"/>
<text x="400.0" y="666.25" text-anchor="middle" font-family="Arial, sans-serif" font-size="15.0" fill="#1F2925">Create / validate</text>
<rect x="357.5" y="888.0" width="85.0" height="34.0" rx="12" fill="#FFFFFF" stroke="none" stroke-width="3"/>
<text x="400.0" y="910.25" text-anchor="middle" font-family="Arial, sans-serif" font-size="15.0" fill="#1F2925">Yes</text>
<rect x="1352.0" y="743.0" width="122.0" height="34.0" rx="12" fill="#FFFFFF" stroke="none" stroke-width="3"/>
<text x="1413.0" y="765.25" text-anchor="middle" font-family="Arial, sans-serif" font-size="15.0" fill="#1F2925">No / expired</text>
<rect x="1633.75" y="503.0" width="198.5" height="34.0" rx="12" fill="#FFFFFF" stroke="none" stroke-width="3"/>
<text x="1733.0" y="525.25" text-anchor="middle" font-family="Arial, sans-serif" font-size="15.0" fill="#1F2925">Owner renew / correct</text>
<rect x="1361.5" y="983.0" width="85.0" height="34.0" rx="12" fill="#FFFFFF" stroke="none" stroke-width="3"/>
<text x="1404.0" y="1005.25" text-anchor="middle" font-family="Arial, sans-serif" font-size="15.0" fill="#1F2925">Comment</text>
<rect x="1426.75" y="1063.0" width="130.5" height="34.0" rx="12" fill="#FFFFFF" stroke="none" stroke-width="3"/>
<text x="1492.0" y="1085.25" text-anchor="middle" font-family="Arial, sans-serif" font-size="15.0" fill="#1F2925">Post / cancel</text>
<rect x="330.5" y="1124.0" width="139.0" height="34.0" rx="12" fill="#FFFFFF" stroke="none" stroke-width="3"/>
<text x="400.0" y="1146.25" text-anchor="middle" font-family="Arial, sans-serif" font-size="15.0" fill="#1F2925">Choose outcome</text>
<rect x="326.25" y="1368.0" width="147.5" height="34.0" rx="12" fill="#FFFFFF" stroke="none" stroke-width="3"/>
<text x="400.0" y="1390.25" text-anchor="middle" font-family="Arial, sans-serif" font-size="15.0" fill="#1F2925">Request changes</text>
<rect x="863.75" y="1363.0" width="164.5" height="34.0" rx="12" fill="#FFFFFF" stroke="none" stroke-width="3"/>
<text x="946.0" y="1385.25" text-anchor="middle" font-family="Arial, sans-serif" font-size="15.0" fill="#1F2925">Approve → proceed</text>
<rect x="1095.0" y="1064.0" width="190.0" height="34.0" rx="12" fill="#FFFFFF" stroke="none" stroke-width="3"/>
<text x="1190.0" y="1086.25" text-anchor="middle" font-family="Arial, sans-serif" font-size="15.0" fill="#1F2925">Open seller directly</text>
<rect x="754.75" y="1703.0" width="164.5" height="34.0" rx="12" fill="#FFFFFF" stroke="none" stroke-width="3"/>
<text x="837.0" y="1725.25" text-anchor="middle" font-family="Arial, sans-serif" font-size="15.0" fill="#1F2925">No · lost / short</text>
<rect x="1137.5" y="1848.0" width="85.0" height="34.0" rx="12" fill="#FFFFFF" stroke="none" stroke-width="3"/>
<text x="1180.0" y="1870.25" text-anchor="middle" font-family="Arial, sans-serif" font-size="15.0" fill="#1F2925">Yes</text>
<rect x="784.5" y="1943.0" width="105.0" height="34.0" rx="12" fill="#FFFFFF" stroke="none" stroke-width="3"/>
<text x="837.0" y="1965.25" text-anchor="middle" font-family="Arial, sans-serif" font-size="15.0" fill="#1F2925">No / error</text>
<rect x="639.25" y="1543.0" width="113.5" height="34.0" rx="12" fill="#FFFFFF" stroke="none" stroke-width="3"/>
<text x="696.0" y="1565.25" text-anchor="middle" font-family="Arial, sans-serif" font-size="15.0" fill="#1F2925">Retry check</text>
<rect x="1137.5" y="2088.0" width="85.0" height="34.0" rx="12" fill="#FFFFFF" stroke="none" stroke-width="3"/>
<text x="1180.0" y="2110.25" text-anchor="middle" font-family="Arial, sans-serif" font-size="15.0" fill="#1F2925">Yes</text>
<rect x="1123.25" y="2324.0" width="113.5" height="34.0" rx="12" fill="#FFFFFF" stroke="none" stroke-width="3"/>
<text x="1180.0" y="2346.25" text-anchor="middle" font-family="Arial, sans-serif" font-size="15.0" fill="#1F2925">Open seller</text>
<rect x="1102.0" y="2564.0" width="156.0" height="34.0" rx="12" fill="#FFFFFF" stroke="none" stroke-width="3"/>
<text x="1180.0" y="2586.25" text-anchor="middle" font-family="Arial, sans-serif" font-size="15.0" fill="#1F2925">Return to Homely</text>
<rect x="754.75" y="2663.0" width="164.5" height="34.0" rx="12" fill="#FFFFFF" stroke="none" stroke-width="3"/>
<text x="837.0" y="2685.25" text-anchor="middle" font-family="Arial, sans-serif" font-size="15.0" fill="#1F2925">Still considering</text>
<rect x="1481.5" y="2663.0" width="207.0" height="34.0" rx="12" fill="#FFFFFF" stroke="none" stroke-width="3"/>
<text x="1585.0" y="2685.25" text-anchor="middle" font-family="Arial, sans-serif" font-size="15.0" fill="#1F2925">Canceled / unavailable</text>
<rect x="1110.5" y="2808.0" width="139.0" height="34.0" rx="12" fill="#FFFFFF" stroke="none" stroke-width="3"/>
<text x="1180.0" y="2830.25" text-anchor="middle" font-family="Arial, sans-serif" font-size="15.0" fill="#1F2925">Mark purchased</text>
<rect x="628.0" y="2023.0" width="122.0" height="34.0" rx="12" fill="#FFFFFF" stroke="none" stroke-width="3"/>
<text x="689.0" y="2045.25" text-anchor="middle" font-family="Arial, sans-serif" font-size="15.0" fill="#1F2925">Resume later</text>
<rect x="70.0" y="3610.0" width="240.0" height="40.0" rx="12" fill="#EAF0F7" stroke="#365D78" stroke-width="3"/>
<text x="190.0" y="3635.95" text-anchor="middle" font-family="Arial, sans-serif" font-size="17.0" fill="#1F2925">← Journey map</text>
</svg>