<svg xmlns="http://www.w3.org/2000/svg" width="1900" height="1900" viewBox="0 0 1900 1900">
<defs><marker id="arrow" markerWidth="9" markerHeight="9" refX="8" refY="4.5" orient="auto"><path d="M0 0 L9 4.5 L0 9 Z" fill="#658070"/></marker></defs>
<rect width="100%" height="100%" fill="#fffdfa"/>
<text x="65" y="75" font-family="Arial" font-size="30" font-weight="bold" fill="#1F2925">03 ACTUAL PRODUCT IN ROOM · identity and fit</text>
<text x="65" y="130" font-family="Arial" font-size="16" fill="#526A58">Homely proposed architecture · arrows show actual data/control flow · 2026-09-13</text>
<path d="M240,297 L240.0,297 L240.0,505 L240,505" fill="none" stroke="#658070" stroke-width="2" marker-end="url(#arrow)" opacity="0.8"/>
<path d="M520,231 L460.0,231 L460.0,571 L400,571" fill="none" stroke="#658070" stroke-width="2" marker-end="url(#arrow)" opacity="0.8"/>
<path d="M1280,231 L1340.0,231 L1340.0,231 L1400,231" fill="none" stroke="#658070" stroke-width="2" marker-end="url(#arrow)" opacity="0.8"/>
<path d="M1400,231 L1340.0,231 L1340.0,571 L1280,571" fill="none" stroke="#658070" stroke-width="2" marker-end="url(#arrow)" opacity="0.8"/>
<path d="M400,571 L460.0,571 L460.0,571 L520,571" fill="none" stroke="#658070" stroke-width="2" marker-end="url(#arrow)" opacity="0.8"/>
<path d="M840,571 L900.0,571 L900.0,571 L960,571" fill="none" stroke="#658070" stroke-width="2" marker-end="url(#arrow)" opacity="0.8"/>
<path d="M520,571 L460.0,571 L460.0,911 L400,911" fill="none" stroke="#658070" stroke-width="2" marker-end="url(#arrow)" opacity="0.8"/>
<path d="M1280,571 L1340.0,571 L1340.0,571 L1400,571" fill="none" stroke="#658070" stroke-width="2" marker-end="url(#arrow)" opacity="0.8"/>
<path d="M1400,571 L1120.0,571 L1120.0,911 L840,911" fill="none" stroke="#658070" stroke-width="2" marker-end="url(#arrow)" opacity="0.8"/>
<path d="M1400,571 L1340.0,571 L1340.0,911 L1280,911" fill="none" stroke="#658070" stroke-width="2" marker-end="url(#arrow)" opacity="0.8"/>
<path d="M840,911 L1120.0,911 L1120.0,911 L1400,911" fill="none" stroke="#658070" stroke-width="2" marker-end="url(#arrow)" opacity="0.8"/>
<path d="M1280,911 L1340.0,911 L1340.0,911 L1400,911" fill="none" stroke="#658070" stroke-width="2" marker-end="url(#arrow)" opacity="0.8"/>
<path d="M680,977 L680.0,977 L680.0,1175 L680,1175" fill="none" stroke="#658070" stroke-width="2" marker-end="url(#arrow)" opacity="0.8"/>
<path d="M960,911 L900.0,911 L900.0,1241 L840,1241" fill="none" stroke="#658070" stroke-width="2" marker-end="url(#arrow)" opacity="0.8"/>
<path d="M520,1241 L460.0,1241 L460.0,911 L400,911" fill="none" stroke="#658070" stroke-width="2" marker-end="url(#arrow)" opacity="0.8"/>
<path d="M1560,977 L1560.0,977 L1560.0,1175 L1560,1175" fill="none" stroke="#658070" stroke-width="2" marker-end="url(#arrow)" opacity="0.8"/>
<path d="M400,1241 L900.0,1241 L900.0,231 L1400,231" fill="none" stroke="#658070" stroke-width="2" marker-end="url(#arrow)" opacity="0.8"/>
<path d="M400,1241 L680.0,1241 L680.0,571 L960,571" fill="none" stroke="#658070" stroke-width="2" marker-end="url(#arrow)" opacity="0.8"/>
<path d="M1120,1175 L1120.0,1175 L1120.0,637 L1120,637" fill="none" stroke="#658070" stroke-width="2" marker-end="url(#arrow)" opacity="0.8"/>
<path d="M960,1241 L900.0,1241 L900.0,1241 L840,1241" fill="none" stroke="#658070" stroke-width="2" marker-end="url(#arrow)" opacity="0.8"/>
<rect x="80" y="165" width="320" height="132" rx="14" fill="#F7F2EA" stroke="#795E47" stroke-width="2"/>
<text x="240" y="225" text-anchor="middle" font-family="Arial" font-size="17" font-weight="bold" fill="#1F2925">S04/S05 original room</text>
<text x="240" y="249" text-anchor="middle" font-family="Arial" font-size="17" font-weight="bold" fill="#1F2925">retained furniture + consent</text>
<rect x="520" y="165" width="320" height="132" rx="14" fill="#EAF0F7" stroke="#365D78" stroke-width="2"/>
<text x="680" y="225" text-anchor="middle" font-family="Arial" font-size="17" font-weight="bold" fill="#1F2925">Room/table dimensions</text>
<text x="680" y="249" text-anchor="middle" font-family="Arial" font-size="17" font-weight="bold" fill="#1F2925">unit, origin, confidence</text>
<rect x="960" y="165" width="320" height="132" rx="14" fill="#EAF0F7" stroke="#365D78" stroke-width="2"/>
<text x="1120" y="225" text-anchor="middle" font-family="Arial" font-size="17" font-weight="bold" fill="#1F2925">S11 exact SKU assets</text>
<text x="1120" y="249" text-anchor="middle" font-family="Arial" font-size="17" font-weight="bold" fill="#1F2925">licensed photos + dimensions</text>
<rect x="1400" y="165" width="320" height="132" rx="14" fill="#EAF0F7" stroke="#365D78" stroke-width="2"/>
<text x="1560" y="225" text-anchor="middle" font-family="Arial" font-size="17" font-weight="bold" fill="#1F2925">Asset lineage record</text>
<text x="1560" y="249" text-anchor="middle" font-family="Arial" font-size="17" font-weight="bold" fill="#1F2925">source, hash, variant, versions</text>
<rect x="80" y="505" width="320" height="132" rx="14" fill="#F4F8F5" stroke="#285449" stroke-width="2"/>
<text x="240" y="565" text-anchor="middle" font-family="Arial" font-size="17" font-weight="bold" fill="#1F2925">Placement plan</text>
<text x="240" y="589" text-anchor="middle" font-family="Arial" font-size="17" font-weight="bold" fill="#1F2925">floor plane, scale, occlusion</text>
<polygon points="680,505 840,571 680,637 520,571" fill="#F8E8D8" stroke="#A35E38" stroke-width="2"/>
<text x="680" y="565" text-anchor="middle" font-family="Arial" font-size="17" font-weight="bold" fill="#1F2925">Geometry sufficient?</text>
<rect x="960" y="505" width="320" height="132" rx="14" fill="#F4F8F5" stroke="#285449" stroke-width="2"/>
<text x="1120" y="565" text-anchor="middle" font-family="Arial" font-size="17" font-weight="bold" fill="#1F2925">S13 async image edit</text>
<text x="1120" y="589" text-anchor="middle" font-family="Arial" font-size="17" font-weight="bold" fill="#1F2925">Flare; Sunburst if needed</text>
<rect x="1400" y="505" width="320" height="132" rx="14" fill="#EAF0F7" stroke="#365D78" stroke-width="2"/>
<text x="1560" y="565" text-anchor="middle" font-family="Arial" font-size="17" font-weight="bold" fill="#1F2925">Illustrative composite</text>
<text x="1560" y="589" text-anchor="middle" font-family="Arial" font-size="17" font-weight="bold" fill="#1F2925">never source of fit truth</text>
<rect x="80" y="845" width="320" height="132" rx="14" fill="#F7F2EA" stroke="#795E47" stroke-width="2"/>
<text x="240" y="905" text-anchor="middle" font-family="Arial" font-size="17" font-weight="bold" fill="#1F2925">Ask for measurement</text>
<text x="240" y="929" text-anchor="middle" font-family="Arial" font-size="17" font-weight="bold" fill="#1F2925">or show source image</text>
<polygon points="680,845 840,911 680,977 520,911" fill="#F8E8D8" stroke="#A35E38" stroke-width="2"/>
<text x="680" y="905" text-anchor="middle" font-family="Arial" font-size="17" font-weight="bold" fill="#1F2925">Compare with SKU photos</text>
<text x="680" y="929" text-anchor="middle" font-family="Arial" font-size="17" font-weight="bold" fill="#1F2925">color, silhouette, material</text>
<polygon points="1120,845 1280,911 1120,977 960,911" fill="#F8E8D8" stroke="#A35E38" stroke-width="2"/>
<text x="1120" y="905" text-anchor="middle" font-family="Arial" font-size="17" font-weight="bold" fill="#1F2925">Independent fit checks</text>
<text x="1120" y="929" text-anchor="middle" font-family="Arial" font-size="17" font-weight="bold" fill="#1F2925">arm/seat/clearance/scale</text>
<rect x="1400" y="845" width="320" height="132" rx="14" fill="#F7F2EA" stroke="#795E47" stroke-width="2"/>
<text x="1560" y="905" text-anchor="middle" font-family="Arial" font-size="17" font-weight="bold" fill="#1F2925">Original | placement | dims</text>
<text x="1560" y="929" text-anchor="middle" font-family="Arial" font-size="17" font-weight="bold" fill="#1F2925">source image visible</text>
<rect x="80" y="1175" width="320" height="132" rx="14" fill="#F7F2EA" stroke="#795E47" stroke-width="2"/>
<text x="240" y="1235" text-anchor="middle" font-family="Arial" font-size="17" font-weight="bold" fill="#1F2925">Swap selected variant</text>
<text x="240" y="1259" text-anchor="middle" font-family="Arial" font-size="17" font-weight="bold" fill="#1F2925">new render job + provenance</text>
<polygon points="680,1175 840,1241 680,1307 520,1241" fill="#F8E8D8" stroke="#A35E38" stroke-width="2"/>
<text x="680" y="1235" text-anchor="middle" font-family="Arial" font-size="17" font-weight="bold" fill="#1F2925">Low confidence / failure</text>
<text x="680" y="1259" text-anchor="middle" font-family="Arial" font-size="17" font-weight="bold" fill="#1F2925">needs input; no false claim</text>
<rect x="960" y="1175" width="320" height="132" rx="14" fill="#EAF0F7" stroke="#365D78" stroke-width="2"/>
<text x="1120" y="1235" text-anchor="middle" font-family="Arial" font-size="17" font-weight="bold" fill="#1F2925">Fidelity eval on real rooms</text>
<text x="1120" y="1259" text-anchor="middle" font-family="Arial" font-size="17" font-weight="bold" fill="#1F2925">measured SKU test set</text>
<rect x="1400" y="1175" width="320" height="132" rx="14" fill="#F4F8F5" stroke="#285449" stroke-width="2"/>
<text x="1560" y="1235" text-anchor="middle" font-family="Arial" font-size="17" font-weight="bold" fill="#1F2925">S14 compare + S16 choice</text>
<text x="1560" y="1259" text-anchor="middle" font-family="Arial" font-size="17" font-weight="bold" fill="#1F2925">fit caveat retained</text>
</svg>